<svg width="31" height="31" viewBox="0 0 31 31" fill="none" xmlns="http://www.w3.org/2000/svg">
<g clip-path="url(#clip0)">
<path d="M24.2187 12.5938C22.6161 12.5938 21.3125 13.8974 21.3125 15.5C21.3125 17.1025 22.6162 18.4062 24.2187 18.4062C25.8213 18.4062 27.125 17.1025 27.125 15.5C27.125 13.8974 25.8213 12.5938 24.2187 12.5938ZM24.2187 16.4687C23.6842 16.4687 23.25 16.0345 23.25 15.5C23.25 14.9654 23.6842 14.5312 24.2187 14.5312C24.7533 14.5312 25.1875 14.9654 25.1875 15.5C25.1875 16.0345 24.7533 16.4687 24.2187 16.4687Z" fill="#8C8C8C"/>
<path d="M21.3125 5C18.2521 5 15.394 6.43894 13.5653 8.87499H0.968761C0.433279 8.87499 0 9.30827 0 9.84375V17.5938C0 18.1293 0.433279 18.5625 0.968761 18.5625H1.93752V21.4688C1.93752 22.0042 2.3708 22.4375 2.90628 22.4375H8.71879C9.25427 22.4375 9.68755 22.0042 9.68755 21.4688V18.5625H12.4699C14.0044 22.0657 17.4754 24.375 21.3126 24.375C26.6539 24.375 31.0001 20.0289 31.0001 14.6875C31.0001 9.34618 26.6539 5 21.3125 5ZM21.3125 22.4375C18.0619 22.4375 15.1396 20.361 14.0403 17.2693C13.9031 16.8833 13.5369 16.625 13.1273 16.625H8.71879C8.18331 16.625 7.75003 17.0583 7.75003 17.5938V20.5H3.87499V17.5938C3.87499 17.0583 3.44171 16.625 2.90623 16.625H1.93752V10.8125H14.0658C14.3894 10.8125 14.6912 10.6517 14.8709 10.383C16.3155 8.22504 18.7241 6.93752 21.3126 6.93752C25.5858 6.93752 29.0626 10.4142 29.0626 14.6875C29.0626 18.9609 25.5858 22.4375 21.3125 22.4375Z" fill="#8C8C8C"/>
</g>
<defs>
<clipPath id="clip0">
<rect width="31" height="31" fill="white"/>
</clipPath>
</defs>
</svg>
