<svg width="31" height="31" viewBox="0 0 31 31" fill="none" xmlns="http://www.w3.org/2000/svg">
<path d="M15.3884 16.7037C15.4205 16.7037 15.4526 16.7037 15.4911 16.7037C15.504 16.7037 15.5168 16.7037 15.5296 16.7037C15.5489 16.7037 15.5746 16.7037 15.5938 16.7037C17.4748 16.6716 18.9962 16.0104 20.1196 14.7457C22.5912 11.9596 22.1803 7.18348 22.1354 6.72769C21.9749 3.30607 20.3571 1.66908 19.0219 0.905156C18.0269 0.333817 16.8649 0.0256782 15.5682 0H15.5232C15.5168 0 15.504 0 15.4975 0H15.459C14.7465 0 13.347 0.115552 12.0053 0.879478C10.6572 1.6434 9.01381 3.28039 8.85332 6.72769C8.80838 7.18348 8.39753 11.9596 10.8691 14.7457C11.9861 16.0104 13.5075 16.6716 15.3884 16.7037ZM10.5673 6.88818C10.5673 6.86892 10.5738 6.84966 10.5738 6.83682C10.7856 2.234 14.0532 1.7397 15.4526 1.7397H15.4783C15.4911 1.7397 15.5104 1.7397 15.5296 1.7397C17.2629 1.77822 20.2095 2.48437 20.4085 6.83682C20.4085 6.85608 20.4085 6.87534 20.4149 6.88818C20.4213 6.93311 20.8707 11.2984 18.8293 13.5966C18.0204 14.5082 16.9419 14.9575 15.5232 14.9704C15.5104 14.9704 15.504 14.9704 15.4911 14.9704C15.4783 14.9704 15.4719 14.9704 15.459 14.9704C14.0467 14.9575 12.9618 14.5082 12.1594 13.5966C10.1244 11.3112 10.5609 6.92669 10.5673 6.88818Z" fill="#8C8C8C"/>
<path d="M28.6832 24.6257C28.6832 24.6192 28.6832 24.6128 28.6832 24.6064C28.6832 24.555 28.6768 24.5037 28.6768 24.4459C28.6383 23.1748 28.5548 20.2026 25.7688 19.2525C25.7495 19.2461 25.7238 19.2397 25.7046 19.2332C22.8094 18.495 20.402 16.8259 20.3763 16.8067C19.9848 16.5306 19.4455 16.6269 19.1695 17.0185C18.8934 17.4101 18.9897 17.9493 19.3813 18.2254C19.4904 18.3024 22.0454 20.0806 25.2424 20.9023C26.7381 21.4351 26.905 23.0336 26.95 24.4973C26.95 24.555 26.95 24.6064 26.9564 24.6578C26.9628 25.2355 26.9243 26.1278 26.8216 26.6414C25.7816 27.232 21.7052 29.2734 15.5039 29.2734C9.3283 29.2734 5.22621 27.2256 4.17982 26.635C4.07711 26.1214 4.03217 25.2291 4.04501 24.6513C4.04501 24.6 4.05143 24.5486 4.05143 24.4909C4.09637 23.0272 4.26328 21.4287 5.75903 20.8959C8.95597 20.0742 11.5109 18.2896 11.6201 18.219C12.0117 17.9429 12.108 17.4037 11.8319 17.0121C11.5559 16.6205 11.0166 16.5242 10.625 16.8002C10.5994 16.8195 8.20488 18.4886 5.29682 19.2268C5.27115 19.2332 5.25189 19.2397 5.23263 19.2461C2.44654 20.2026 2.36309 23.1748 2.32457 24.4395C2.32457 24.4973 2.32457 24.5486 2.31815 24.6C2.31815 24.6064 2.31815 24.6128 2.31815 24.6192C2.31173 24.9531 2.30531 26.6671 2.64555 27.5273C2.70975 27.6942 2.8253 27.8354 2.97937 27.9317C3.17195 28.0601 7.78761 31.0003 15.5103 31.0003C23.233 31.0003 27.8487 28.0537 28.0413 27.9317C28.1889 27.8354 28.3109 27.6942 28.3751 27.5273C28.6961 26.6735 28.6897 24.9595 28.6832 24.6257Z" fill="#8C8C8C"/>
</svg>
